<svg xmlns="http://www.w3.org/2000/svg" viewBox="0 0 503 496"><g fill="none" stroke-width="2"><path stroke="#51bac1" d="M491.97 248.09q-2.22.91-4.07.14" vector-effect="non-scaling-stroke"/><path stroke="#9dd4cd" d="M487.9 248.23q-3.1-1.12-6.43-.8M252.54 11.75q.58-1.35.59-2.94" vector-effect="non-scaling-stroke"/><path stroke="#74c7cc" d="M487.9 248.23q-3.85.91-6.96.57M28.25 248.55q.15.12.12.26-.04.2-.25.19l-13.62-.86" vector-effect="non-scaling-stroke"/></g><path fill="#7ac7c1" d="M491.97 248.09q-2.22.91-4.07.14-3.1-1.12-6.43-.8l-78.99-6.14q-.55-.04-.58-.59-2.5-40.71-4.91-81.95-.29-4.95-.79-9.66-.01-.04-.05-.06-.15-.07-.24.03-.08.08-.08.18-2.47 42.54-5.04 85.07-.23 3.67-.49 5.48a.7.69-83.3 0 1-.74.59l-118.85-8.97q-.87-.07-.94-.94l-8.4-112.01a.83.82-4.1 0 1 .78-.89l82.98-4.78q.27-.01.29-.28l.03-.27q.01-.1-.1-.11l-84.37-4.95a.63.61 89.4 0 1-.58-.58q-3.22-45.62-6.9-91.1-.15-1.87-.96-3.75.58-1.35.59-2.94 12.36.14 21.25 9.06 105.06 105.31 210.07 210.68 7.34 7.36 7.52 19.54Z"/><path fill="#c0e1d8" d="M253.13 8.81q-.01 1.59-.59 2.94l-6.73 93.55a.97.96 3.3 0 1-1.02.9l-94.27-5.33q-1.21-.07-.36-.92 41.15-41.41 81.96-82.32 8.5-8.51 21.01-8.82ZM124.48 125.63l119.24-6.93a1.01 1.01 0 0 1 1.06 1.08L236.5 230.5a1.01 1.01 0 0 1-.93.94l-117.67 8.82a1.01 1.01 0 0 1-1.08-1.06l6.71-112.62a1.01 1.01 0 0 1 .95-.95ZM28.25 248.55q.15.12.12.26-.04.2-.25.19l-13.62-.86q.16-12.52 8.77-21.12 37.06-37.01 74.5-74.51.8-.8.86.23l5.05 87.59a.99.99 0 0 1-.91 1.05q-32.79 2.49-64.79 4.85-4.77.35-8.86 1.19-.45.09-.69.31-.45.41-.18.82ZM487.9 248.23q-3.85.91-6.96.57.55-1.02.53-1.37 3.33-.32 6.43.8Z"/><path fill="#28adc0" d="m14.5 248.14 13.62.86q.21.01.25-.19.03-.14-.12-.26l75.89 6.28a.67.66-89.5 0 1 .6.62l5.39 92.8q.01.19.2.19h.26q.08-.01.08-.08.14-6.37.72-15.59 2.5-39.73 4.29-76.33a.7.69 3.2 0 1 .75-.66L236 264.79a.51.51 0 0 1 .47.47l8.47 112.81q.04.54-.5.57l-82.94 4.83q-.19.01-.19.03v.33q0 .24.25.25l83.73 4.96a.55.53 0 0 1 .51.5l7.01 93.92q.09 1.2.4.04.39-1.49.51-3.16 3.54-47.06 6.66-89.82a.6.59 3.4 0 1 .63-.55l95.17 5.38a.41.41 0 0 1 .27.7q-38.14 38.17-78.71 79.11-6.73 6.79-10.91 8.9c-11.97 6.04-25.59 3.68-35.07-5.82Q130.39 376.67 22.11 267.89q-7.71-7.74-7.61-19.75ZM491.97 248.09q-.03 7.4-3.4 13.67-2.18 4.06-8.68 10.58-35.95 36.01-71.65 71.97a.16.16 0 0 1-.28-.1l-5.23-88.95q-.03-.41.39-.44l77.82-6.02q3.11.34 6.96-.57 1.85.77 4.07-.14Z"/><path fill="#28adc0" d="m270.27 264.81 118.75-8.95a.5.5 0 0 1 .54.53l-6.66 113.74a.5.5 0 0 1-.47.47l-120.46 7.04a.5.5 0 0 1-.53-.54l8.37-111.83a.5.5 0 0 1 .46-.46Z"/></svg>